<svg width="613" height="235" viewBox="0 0 613 235" fill="none" xmlns="http://www.w3.org/2000/svg">
<path d="M51.5269 140.921C51.5269 120.628 67.5766 105.318 89.2628 105.318C95.7816 105.318 103.266 107.461 109.101 111.367V126.487C103.852 121.315 96.6488 118.393 89.7496 118.393C75.6471 118.393 66.1162 127.952 66.1162 140.921C66.1162 153.889 75.6471 163.257 89.7496 163.257C96.6564 163.257 103.852 160.328 109.101 155.163V170.284C103.266 174.182 95.774 176.333 89.2628 176.333C67.5766 176.325 51.5269 161.106 51.5269 140.921Z" fill="#FFFFFA"/>
<path d="M115.026 150.38C115.026 135.558 126.695 124.336 141.87 124.336C157.045 124.336 168.713 135.55 168.713 150.38C168.713 165.21 156.946 176.325 141.87 176.325C126.794 176.325 115.026 165.012 115.026 150.38ZM141.87 163.936C149.263 163.936 154.9 158.184 154.9 150.38C154.9 142.576 149.256 136.725 141.87 136.725C134.484 136.725 128.84 142.576 128.84 150.38C128.84 158.184 134.484 163.936 141.87 163.936Z" fill="#FFFFFA"/>
<path d="M224.629 147.55V175.151H211.013V148.038C211.013 141.211 206.928 136.725 200.706 136.725C194.484 136.725 190.399 141.211 190.399 148.038V175.151H176.784V147.55C176.784 133.506 186.216 124.336 200.706 124.336C215.197 124.336 224.629 133.506 224.629 147.55Z" fill="#FFFFFA"/>
<path d="M251.761 112.145V125.511H268.1V136.824H251.761V154.477C251.761 161.503 255.747 164.425 260.029 164.425C263.528 164.425 265.963 163.448 268.1 162.281V174.182C264.601 175.646 260.805 176.325 257.595 176.325C246.505 176.325 238.047 169.597 238.047 155.255V136.824H230.075V125.511H238.047V112.145H251.761Z" fill="#FFFFFA"/>
<path d="M272.283 150.38C272.283 135.848 282.4 124.435 297.278 124.435C313.13 124.435 321.787 137.213 319.55 153.21H284.347C285.709 160.427 291.642 165.21 300.975 165.21C307.197 165.21 313.229 162.769 317.9 158.772V170.375C313.914 173.884 307.296 176.325 298.648 176.325C282.895 176.325 272.291 165.889 272.291 150.38H272.283ZM306.513 144.14C306.125 138.678 301.941 134.68 296.206 134.68C290.471 134.68 286.287 137.9 284.728 144.14H306.513Z" fill="#FFFFFA"/>
<path d="M342.69 148.328V175.151H329.074V125.511H342.69V133.117C345.512 127.456 351.247 124.336 356.305 124.336C363.402 124.336 368.362 127.258 371.085 132.819C374.972 127.258 380.327 124.336 387.226 124.336C398.217 124.336 404.728 132.14 404.728 146.284V175.151H391.113V147.451C391.113 140.822 387.903 136.725 382.844 136.725C377.299 136.725 373.701 141.211 373.701 148.328V175.151H360.086V147.451C360.086 140.822 356.876 136.725 351.916 136.725C346.272 136.725 342.674 141.211 342.674 148.328H342.69Z" fill="#FFFFFA"/>
<path d="M429.533 167.644V175.151H415.917V106.485H429.533V133.017C432.545 127.456 438.189 124.336 445.385 124.336C458.803 124.336 469.407 135.359 469.407 150.38C469.407 165.401 458.803 176.325 445.385 176.325C438.189 176.325 432.545 173.205 429.533 167.644ZM442.563 163.936C449.957 163.936 455.593 158.184 455.593 150.38C455.593 142.576 449.949 136.725 442.563 136.725C435.177 136.725 429.533 142.576 429.533 150.38C429.533 158.184 435.177 163.936 442.563 163.936Z" fill="#FFFFFA"/>
<path d="M475.431 150.38C475.431 135.848 485.548 124.435 500.426 124.435C516.278 124.435 524.934 137.213 522.698 153.21H487.495C488.856 160.427 494.79 165.21 504.123 165.21C510.345 165.21 516.377 162.769 521.047 158.772V170.375C517.061 173.884 510.444 176.325 501.795 176.325C486.042 176.325 475.439 165.889 475.439 150.38H475.431ZM509.66 144.14C509.272 138.678 505.089 134.68 499.353 134.68C493.618 134.68 489.435 137.9 487.875 144.14H509.66Z" fill="#FFFFFA"/>
<path d="M554.006 137.114C548.271 137.114 545.16 141.699 545.16 149.694V175.151H531.544V147.451C531.544 133.307 537.477 124.336 551.481 124.336C553.519 124.336 558.19 124.824 560.038 125.503V138.472C559.065 137.793 555.368 137.106 554.006 137.106V137.114Z" fill="#FFFFFA"/>
<path d="M153.36 62.36C147.4 62.36 143.2 65.64 143.2 70.44C143.2 74.48 145.28 76.92 150.2 78.68L153.72 79.92C156 80.72 157.04 81.52 157.04 83.16C157.04 85.08 155.4 86.24 152.6 86.24C149.6 86.24 146.24 84.56 143.44 81.4V87.72C145.24 89.72 148.48 91.48 152.48 91.48C158.72 91.48 163.04 88 163.04 82.84C163.04 78.64 160.96 76.2 156 74.48L152.16 73.16C150.12 72.44 149.24 71.6 149.24 70.2C149.24 68.56 150.72 67.6 153.24 67.6C156.12 67.6 159.32 69.08 161.92 71.76V65.56C159.92 63.64 156.52 62.36 153.36 62.36ZM167.967 65.16V70.64H164.687V75.28H167.967V82.84C167.967 88.72 171.447 91.48 176.007 91.48C177.327 91.48 178.887 91.2 180.327 90.6V85.72C179.447 86.2 178.447 86.6 177.007 86.6C175.247 86.6 173.607 85.4 173.607 82.52V75.28H180.327V70.64H173.607V65.16H167.967ZM194.839 78.96V79.92C193.639 79.04 191.759 78.44 189.839 78.44C185.559 78.44 182.519 81.08 182.519 84.92C182.519 88.68 185.399 91.48 189.359 91.48C191.839 91.48 193.919 90.28 194.839 88.4V91H200.439V78.64C200.439 73.64 196.479 70.16 190.679 70.16C188.199 70.16 185.639 70.84 183.719 72.32V77.28C185.479 75.8 187.599 74.92 189.879 74.92C192.839 74.92 194.839 76.4 194.839 78.96ZM187.959 84.76C187.959 83.32 189.159 82.32 191.039 82.32C192.399 82.32 193.719 82.76 194.839 83.48V83.52C194.719 85.72 192.999 87.12 190.799 87.12C189.079 87.12 187.959 86.2 187.959 84.76ZM216.806 75.44V70.24C216.646 70.16 216.326 70.16 216.046 70.16C213.566 70.16 211.366 72.08 210.646 74.72V70.64H205.046V91H210.646V81.88C210.686 77.88 213.006 75.36 215.726 75.36C216.126 75.36 216.486 75.36 216.806 75.44ZM221.014 65.16V70.64H217.734V75.28H221.014V82.84C221.014 88.72 224.494 91.48 229.054 91.48C230.374 91.48 231.934 91.2 233.374 90.6V85.72C232.494 86.2 231.494 86.6 230.054 86.6C228.294 86.6 226.654 85.4 226.654 82.52V75.28H233.374V70.64H226.654V65.16H221.014ZM245.936 91.48C249.456 91.48 252.216 90.48 253.816 89.04V84.08C251.896 85.72 249.416 86.76 246.896 86.76C243.096 86.76 240.856 84.96 240.296 82.12H254.496C255.416 75.56 252.256 70.16 245.336 70.16C239.216 70.16 235.096 74.88 235.096 80.84C235.096 87.2 239.416 91.48 245.936 91.48ZM240.376 78.28C241.016 75.76 242.656 74.56 244.936 74.56C247.296 74.56 248.816 76.24 248.936 78.28H240.376ZM258.366 91H263.966V81.88C264.006 77.88 266.326 75.36 269.286 75.36C270.326 75.36 271.606 75.56 272.726 76.24V70.92C271.766 70.4 270.606 70.16 269.606 70.16C266.886 70.16 264.686 72.12 263.966 74.8V70.64H258.366V91ZM303.359 70.64H295.799L289.239 77.24V62.84H283.639V91H289.239V84.72L291.919 82.08L297.879 91H304.599L295.879 78.08L303.359 70.64ZM312.052 70.64H306.452V91H312.052V70.64ZM305.772 64.8C305.772 66.64 307.212 68.2 309.212 68.2C311.172 68.2 312.692 66.64 312.692 64.8C312.692 62.96 311.172 61.36 309.212 61.36C307.212 61.36 305.772 62.96 305.772 64.8ZM318.241 65.16V70.64H314.961V75.28H318.241V82.84C318.241 88.72 321.721 91.48 326.281 91.48C327.601 91.48 329.161 91.2 330.601 90.6V85.72C329.721 86.2 328.721 86.6 327.281 86.6C325.521 86.6 323.881 85.4 323.881 82.52V75.28H330.601V70.64H323.881V65.16H318.241ZM341.313 70.16C337.233 70.16 333.153 71.8 333.153 76.8C333.153 79.4 334.633 81.72 338.953 82.6L341.273 83.08C342.873 83.4 343.393 84.08 343.393 85C343.393 86.08 342.313 86.84 340.553 86.84C338.353 86.84 335.393 85.84 332.953 84V89C334.313 90 337.073 91.48 340.553 91.48C346.033 91.48 349.073 89.12 349.073 85.08C349.073 82.08 347.593 79.64 343.513 78.72L340.633 78.08C339.273 77.76 338.753 77.12 338.753 76.32C338.753 75.28 339.753 74.72 341.353 74.72C343.313 74.72 346.113 75.44 348.113 76.84V72.12C346.473 70.92 343.913 70.16 341.313 70.16Z" fill="#FFFFFA"/>
<path d="M137 50.0596H360.731C365.116 50.0596 368.671 53.6146 368.671 58V96C368.671 100.385 365.116 103.94 360.731 103.94H129.06V58C129.06 53.6146 132.615 50.0596 137 50.0596Z" stroke="#FFFFFA" stroke-width="4.11919"/>
</svg>
